<?xml version="1.0" standalone="no"?><!DOCTYPE svg PUBLIC "-//W3C//DTD SVG 1.1//EN" "http://www.w3.org/Graphics/SVG/1.1/DTD/svg11.dtd"><svg t="1712900544958" class="icon" viewBox="0 0 1024 1024" version="1.1" xmlns="http://www.w3.org/2000/svg" p-id="1565" xmlns:xlink="http://www.w3.org/1999/xlink" width="200" height="200"><path d="M924 622.7V510.1c0-227.3-186-413.2-413.2-413.2-227.3 0-413.2 185.9-413.2 413.2v116.2C70.2 666.4 57.7 716.7 66.7 768 85 872.7 184.9 942.7 289.6 924.2c0.7-0.1 1.3-0.2 2-0.4 27.3-5.1 45.5-31.2 40.7-58.6L283 586.1c-4.8-27.4-30.8-45.7-58.2-41.2-0.6 0.1-1.2 0.2-1.9 0.3-12.3 2.2-24.1 5.5-35.3 9.8v-45c0-43.4 8.6-85.5 25.4-125.2 16.3-38.5 39.8-73.1 69.6-102.9 29.8-29.8 64.5-53.2 102.9-69.6 39.7-16.9 81.9-25.4 125.2-25.4 43.4 0 85.5 8.6 125.2 25.4 38.5 16.3 73.1 39.8 102.9 69.6 29.8 29.8 53.2 64.5 69.6 102.9 16.9 39.7 25.4 81.9 25.4 125.2v44c-10.5-3.8-21.5-6.8-32.9-8.8-0.6-0.1-1.2-0.2-1.9-0.3-27.4-4.5-53.4 13.8-58.2 41.2l-49.2 279.1c-4.8 27.4 13.3 53.5 40.7 58.6 0.7 0.1 1.3 0.2 2 0.4C839 942.7 938.8 872.7 957.2 768c9.4-52.9-4.1-104.7-33.2-145.3z" fill="#0A0A0A" p-id="1566"></path></svg>