<?xml version="1.0" standalone="no"?><!DOCTYPE svg PUBLIC "-//W3C//DTD SVG 1.1//EN" "http://www.w3.org/Graphics/SVG/1.1/DTD/svg11.dtd"><svg t="1712829744971" class="icon" viewBox="0 0 1024 1024" version="1.1" xmlns="http://www.w3.org/2000/svg" p-id="14508" xmlns:xlink="http://www.w3.org/1999/xlink" width="200" height="200"><path d="M137.481481 9.481481C192.464593 9.481481 237.037037 54.053926 237.037037 109.037037V227.555556c0 120.32 162.730667 265.121185 302.26963 274.981925L675.830519 502.518519C826.064593 502.518519 952.888889 614.21037 971.851852 763.259259l11.444148 89.884445c10.571852 83.114667-48.232296 159.061333-131.337481 169.642666a151.703704 151.703704 0 0 1-19.152593 1.21363H349.202963c-83.787852 0-151.703704-67.915852-151.703704-151.703704a151.703704 151.703704 0 0 1 1.991111-24.500148L213.333333 763.259259c5.925926-36.238222 17.284741-69.783704 33.21363-99.925333C119.314963 560.791704 37.925926 403.683556 37.925926 227.555556V109.037037C37.925926 54.053926 82.49837 9.481481 137.481481 9.481481z" fill="#F99D1C" p-id="14509"></path><path d="M587.851852 199.111111m-199.111111 0a199.111111 199.111111 0 1 0 398.222222 0 199.111111 199.111111 0 1 0-398.222222 0Z" fill="#F99D1C" p-id="14510"></path></svg>