<?xml version="1.0" standalone="no"?><!DOCTYPE svg PUBLIC "-//W3C//DTD SVG 1.1//EN" "http://www.w3.org/Graphics/SVG/1.1/DTD/svg11.dtd"><svg t="1712900673064" class="icon" viewBox="0 0 1024 1024" version="1.1" xmlns="http://www.w3.org/2000/svg" p-id="2563" xmlns:xlink="http://www.w3.org/1999/xlink" width="200" height="200"><path d="M1024 608.094l0-192.188-146.774-24.462c-5.958-18.132-13.222-35.668-21.694-52.5l86.454-121.034-135.896-135.898-120.826 86.304c-16.91-8.554-34.538-15.888-52.768-21.902L608.094 0l-192.188 0-24.402 146.416c-18.23 6.014-35.858 13.348-52.766 21.902l-120.828-86.304-135.898 135.898 86.454 121.036c-8.47 16.83-15.734 34.366-21.692 52.498L0 415.906l0 192.188 147.118 24.52c5.96 17.968 13.21 35.348 21.642 52.03l-86.748 121.448 135.898 135.896 121.654-86.894c16.602 8.35 33.89 15.528 51.764 21.434L415.906 1024l192.188 0 24.578-147.474c17.874-5.906 35.162-13.084 51.766-21.432l121.652 86.892 135.896-135.896-86.744-121.446c8.432-16.682 15.678-34.062 21.64-52.032L1024 608.094zM512 640c-70.692 0-128-57.306-128-128 0-70.692 57.308-128 128-128 70.694 0 128 57.308 128 128C640 582.694 582.694 640 512 640z" fill="#000000" p-id="2564"></path></svg>