<?xml version="1.0" standalone="no"?><!DOCTYPE svg PUBLIC "-//W3C//DTD SVG 1.1//EN" "http://www.w3.org/Graphics/SVG/1.1/DTD/svg11.dtd"><svg t="1712901517084" class="icon" viewBox="0 0 1024 1024" version="1.1" xmlns="http://www.w3.org/2000/svg" p-id="4714" xmlns:xlink="http://www.w3.org/1999/xlink" width="200" height="200"><path d="M794 411.1c-15.5 0-28 12.5-28 28V562c0 60.8-23.8 118.1-67.2 161.4-43.3 43.3-100.6 67.2-161.4 67.2h-40.3c-60.8 0-118.1-23.8-161.4-67.2-43.3-43.3-67.2-100.6-67.2-161.4V439.1c0-15.5-12.5-28-28-28s-28 12.5-28 28V562c0 38.3 7.6 75.5 22.5 110.5 14.4 33.8 34.9 64.3 61.1 90.4 26.2 26.2 56.6 46.7 90.4 61.1 32.7 13.9 67.2 21.4 102.7 22.4v81.5H403c-15.5 0-28 12.5-28 28s12.5 28 28 28h228.6c15.5 0 28-12.5 28-28s-12.5-28-28-28h-86.3v-81.5c35.5-1 70-8.5 102.7-22.4 33.8-14.4 64.3-34.9 90.4-61.1 26.2-26.2 46.7-56.6 61.1-90.4 14.9-35 22.5-72.2 22.5-110.5V439.1c0-15.4-12.5-28-28-28z" fill="" p-id="4715"></path><path d="M337.3 536.4c0 99.3 80.8 180.1 180.1 180.1s180.1-80.8 180.1-180.1V436.1H337.3v100.3zM697.4 268.8c0-47.9-18.8-93.1-52.9-127.2s-79.3-52.9-127.2-52.9-93.1 18.8-127.2 52.9-52.9 79.3-52.9 127.2v111.3h360.2V268.8z" fill="" p-id="4716"></path></svg>