<?xml version="1.0" standalone="no"?><!DOCTYPE svg PUBLIC "-//W3C//DTD SVG 1.1//EN" "http://www.w3.org/Graphics/SVG/1.1/DTD/svg11.dtd"><svg t="1712901505383" class="icon" viewBox="0 0 1024 1024" version="1.1" xmlns="http://www.w3.org/2000/svg" p-id="4570" xmlns:xlink="http://www.w3.org/1999/xlink" width="200" height="200"><path d="M282.7 415c0-15.7-13-28.4-28.8-28-15.3 0.4-27.2 13.3-27.2 28.6v123.1c0 14.2 17.3 21.2 27.3 11.2l24-24c3-3 4.7-7.1 4.7-11.3V415zM807.3 387c-15.3 0.4-27.2 13.3-27.2 28.6v122.3c0 60.8-23.8 118.1-67.2 161.4-43.3 43.3-100.6 67.2-161.4 67.2h-40.3c-60.8 0-118.1-23.8-161.4-67.2l-0.2-0.2c-9-9-23.6-9.2-32.6-0.1l-7.1 7.1c-8.9 8.9-9 23.4-0.1 32.4l0.4 0.4c26.2 26.2 56.6 46.7 90.4 61.1 32.7 13.9 67.2 21.4 102.7 22.4v81.5H417c-15.5 0-28 12.5-28 28s12.5 28 28 28h228.6c15.5 0 28-12.5 28-28s-12.5-28-28-28h-86.3v-81.5c35.5-1 70-8.5 102.7-22.4 33.8-14.4 64.3-34.9 90.4-61.1 26.2-26.2 46.7-56.6 61.1-90.4C828.4 613.4 836 576.2 836 538V415c0-15.7-12.9-28.4-28.7-28zM658.6 117.5c-34-34-79.1-52.8-126.9-52.9-99.2-0.2-180.4 82.5-180.4 181.7v158.8c0 17.5 21.2 26.3 33.5 13.9l273.8-273.8c7.6-7.6 7.7-20 0.1-27.7 0 0.1-0.1 0-0.1 0z" fill="" p-id="4571"></path><path d="M529.6 692.3c100 1 181.8-81.8 181.8-181.8V352.9c0-17.8-21.5-26.7-34.1-14.1L404.5 611.6c-7.8 7.8-7.9 20.4-0.1 28.2 32.2 32 76.4 52 125.2 52.5zM198.1 711.9c-10.9-10.9-10.9-28.7 0-39.6l561.6-561.6c10.9-10.9 28.7-10.9 39.6 0 10.9 10.9 10.9 28.7 0 39.6L237.7 711.9c-10.9 10.9-28.7 10.9-39.6 0z" fill="" p-id="4572"></path></svg>